<svg xmlns="http://www.w3.org/2000/svg" width="1em" height="1em" viewBox="0 0 20 20" fill="currentColor">
  <path
    d="M6.08979 17.0834C5.67549 17.0834 5.32083 16.9359 5.02583 16.6409C4.73083 16.3459 4.58333 15.9912 4.58333 15.5769V5.00002H4.375C4.19792 5.00002 4.04951 4.94009 3.92979 4.82023C3.80993 4.70037 3.75 4.5519 3.75 4.37481C3.75 4.19759 3.80993 4.04919 3.92979 3.92961C4.04951 3.80988 4.19792 3.75002 4.375 3.75002H7.5C7.5 3.546 7.57188 3.37211 7.71563 3.22836C7.85924 3.08475 8.03306 3.01294 8.23708 3.01294H11.7629C11.9669 3.01294 12.1408 3.08475 12.2844 3.22836C12.4281 3.37211 12.5 3.546 12.5 3.75002H15.625C15.8021 3.75002 15.9505 3.80995 16.0702 3.92981C16.1901 4.04968 16.25 4.19815 16.25 4.37523C16.25 4.55245 16.1901 4.70086 16.0702 4.82044C15.9505 4.94016 15.8021 5.00002 15.625 5.00002H15.4167V15.5769C15.4167 15.9912 15.2692 16.3459 14.9742 16.6409C14.6792 16.9359 14.3245 17.0834 13.9102 17.0834H6.08979ZM8.46188 14.1667C8.63896 14.1667 8.78736 14.1068 8.90708 13.9871C9.02667 13.8672 9.08646 13.7188 9.08646 13.5417V7.29169C9.08646 7.11461 9.02653 6.96613 8.90667 6.84627C8.78694 6.72655 8.63847 6.66669 8.46125 6.66669C8.28417 6.66669 8.13576 6.72655 8.01604 6.84627C7.89646 6.96613 7.83667 7.11461 7.83667 7.29169V13.5417C7.83667 13.7188 7.89653 13.8672 8.01625 13.9871C8.13611 14.1068 8.28465 14.1667 8.46188 14.1667ZM11.5387 14.1667C11.7158 14.1667 11.8642 14.1068 11.984 13.9871C12.1035 13.8672 12.1633 13.7188 12.1633 13.5417V7.29169C12.1633 7.11461 12.1035 6.96613 11.9837 6.84627C11.8639 6.72655 11.7153 6.66669 11.5381 6.66669C11.361 6.66669 11.2126 6.72655 11.0929 6.84627C10.9733 6.96613 10.9135 7.11461 10.9135 7.29169V13.5417C10.9135 13.7188 10.9735 13.8672 11.0933 13.9871C11.2131 14.1068 11.3615 14.1667 11.5387 14.1667Z" />
</svg>