<svg xmlns="http://www.w3.org/2000/svg" width="1em" height="1em" viewBox="0 0 28 29" fill="none">
  <g clip-path="url(#clip0_1595_7020)">
    <path d="M5.60003 0.5H18.6667L26.1334 7.96667V24.7667C26.1334 26.82 24.4534 28.5 22.4 28.5H5.60003C3.5467 28.5 1.8667 26.82 1.8667 24.7667V4.23333C1.8667 2.18 3.5467 0.5 5.60003 0.5ZM14 23.8333C18.1067 23.8333 21.4667 20.4733 21.4667 16.3667C21.4667 12.26 18.1067 8.9 14 8.9C9.89337 8.9 6.53337 12.26 6.53337 16.3667C6.53337 20.4733 9.89337 23.8333 14 23.8333ZM14 21.9667C10.8267 21.9667 8.40003 19.54 8.40003 16.3667C8.40003 13.1933 10.8267 10.7667 14 10.7667C17.1734 10.7667 19.6 13.1933 19.6 16.3667C19.6 19.54 17.1734 21.9667 14 21.9667ZM16.8 16.9267L16.9867 16.74C17.1734 16.3667 17.1734 15.9933 16.8 15.8067L13.2534 13.38C13.2534 13.38 13.0667 13.1933 12.88 13.1933C12.5067 13.1933 12.1334 13.5667 12.1334 13.94V18.6067C12.1334 18.7933 12.1334 18.98 12.32 18.98C12.5067 19.3533 13.0667 19.3533 13.44 19.1667L16.8 16.9267Z" fill="#7F72DB"/>
    <path opacity="0.619" d="M18.6667 0.5L26.1334 7.96667H20.5334C19.4134 7.96667 18.6667 7.22 18.6667 6.1V0.5Z" fill="#F9F9F9"/>
  </g>
  <defs>
    <clipPath id="clip0_1595_7020">
      <rect width="28" height="28" fill="white" transform="translate(0 0.5)"/>
    </clipPath>
  </defs>
</svg>