<svg xmlns="http://www.w3.org/2000/svg" width="1em" height="1em" viewBox="0 0 24 24" fill="currentColor">
  <path d="M5.25 20H18.75C18.9625 20 19.1406 20.0719 19.2843 20.2158C19.4281 20.3596 19.5 20.5378 19.5 20.7503C19.5 20.9629 19.4281 21.141 19.2843 21.2845C19.1406 21.4282 18.9625 21.5 18.75 21.5H5.25C5.0375 21.5 4.85942 21.4281 4.71575 21.2843C4.57192 21.1404 4.5 20.9623 4.5 20.7498C4.5 20.5371 4.57192 20.359 4.71575 20.2155C4.85942 20.0719 5.0375 20 5.25 20ZM10.2213 17.6153C9.96508 17.6153 9.75042 17.5287 9.57725 17.3555C9.40392 17.1824 9.31725 16.9677 9.31725 16.7115V10.7213H7.52125C7.14542 10.7213 6.87483 10.5529 6.7095 10.2163C6.54417 9.87978 6.57367 9.56086 6.798 9.25953L11.277 3.43853C11.3673 3.31803 11.4765 3.22761 11.6045 3.16728C11.7327 3.10711 11.8645 3.07703 12 3.07703C12.1355 3.07703 12.2673 3.10711 12.3955 3.16728C12.5235 3.22761 12.6327 3.31803 12.723 3.43853L17.1923 9.25953C17.4166 9.56086 17.4461 9.87978 17.2807 10.2163C17.1154 10.5529 16.8449 10.7213 16.4693 10.7213H14.673V16.7115C14.673 16.9677 14.5864 17.1824 14.4133 17.3555C14.2399 17.5287 14.0253 17.6153 13.7693 17.6153H10.2213Z"/>
</svg>